<svg t="1708417828571" class="icon" viewBox="0 0 1024 1024" version="1.1" xmlns="http://www.w3.org/2000/svg" p-id="4480" width="200" height="200"><path d="M229.614933 34.133333H99.328C62.3616 34.133333 34.133333 62.3616 34.133333 99.328v130.286933c0 36.932267 28.228267 65.194667 65.194667 65.194667h130.286933c36.932267 0 65.194667-28.2624 65.194667-65.194667V99.328C294.775467 62.3616 266.513067 34.133333 229.5808 34.133333z m0 695.0912H99.328C62.3616 729.224533 34.133333 757.418667 34.133333 794.385067v130.321066C34.133333 961.6384 62.3616 989.866667 99.328 989.866667h130.286933c36.932267 0 65.194667-28.228267 65.194667-65.194667v-130.286933c0-36.932267-28.2624-65.194667-65.194667-65.194667z m0-347.5456H99.328C62.3616 381.678933 34.133333 409.9072 34.133333 446.805333v130.321067c0 36.932267 28.228267 65.194667 65.194667 65.194667h130.286933c36.932267 0 65.194667-28.2624 65.194667-65.194667v-130.321067c0-36.932267-28.2624-65.194667-65.194667-65.194666zM577.194667 34.133333h-130.321067c-36.932267 0-65.194667 28.228267-65.194667 65.194667v130.286933c0 36.932267 28.2624 65.194667 65.194667 65.194667h130.321067c36.932267 0 65.194667-28.2624 65.194666-65.194667V99.328c0-36.932267-28.2624-65.160533-65.194666-65.160533z m0 695.0912h-130.321067c-36.932267 0-65.194667 28.228267-65.194667 65.160534v130.321066c0 36.932267 28.2624 65.160533 65.194667 65.160534h130.321067c36.932267 0 65.194667-28.228267 65.194666-65.194667v-130.286933c0-36.932267-28.2624-65.194667-65.194666-65.194667z m0-347.5456h-130.321067c-36.932267 0-65.194667 28.228267-65.194667 65.160534v130.321066c0 36.932267 28.2624 65.194667 65.194667 65.194667h130.321067c36.932267 0 65.194667-28.2624 65.194666-65.194667v-130.321066c0-36.932267-28.2624-65.194667-65.194666-65.194667zM924.706133 34.133333h-130.321066c-36.932267 0-65.194667 28.228267-65.194667 65.194667v130.286933c0 36.932267 28.2624 65.194667 65.194667 65.194667h130.321066c36.932267 0 65.160533-28.2624 65.160534-65.194667V99.328C989.866667 62.3616 961.6384 34.133333 924.672 34.133333z m0 695.0912h-130.321066c-36.932267 0-65.194667 28.228267-65.194667 65.160534v130.321066c0 36.932267 28.2624 65.160533 65.194667 65.160534h130.321066C961.6384 989.866667 989.866667 961.6384 989.866667 924.672v-130.286933c0-36.932267-28.228267-65.194667-65.194667-65.194667z m0-347.5456h-130.321066c-36.932267 0-65.194667 28.228267-65.194667 65.160534v130.321066c0 36.932267 28.2624 65.194667 65.194667 65.194667h130.321066c36.932267 0 65.160533-28.2624 65.160534-65.194667v-130.321066c0-36.932267-28.228267-65.194667-65.194667-65.194667z" fill="#000000" p-id="4481"></path></svg>