<svg width="133" height="20" viewBox="0 0 133 20" fill="none" xmlns="http://www.w3.org/2000/svg">
<path fill-rule="evenodd" clip-rule="evenodd" d="M16.9743 0.981818C17.2456 0.981818 17.4655 0.762031 17.4655 0.490909C17.4655 0.219788 17.2456 0 16.9743 0C16.703 0 16.4831 0.219788 16.4831 0.490909C16.4831 0.762031 16.703 0.981818 16.9743 0.981818ZM11.207 2.92727C11.207 2.31188 10.8476 2.04517 10.5201 1.92885C10.0563 1.856 9.5809 1.81818 9.09662 1.81818C4.0727 1.81818 0 5.88832 0 10.9091C0 15.9299 4.0727 20 9.09662 20C14.1205 20 18.1932 15.9299 18.1932 10.9091C18.1904 10.8818 18.1785 10.8354 18.1632 10.7757C18.1004 10.5309 17.98 10.062 18.1932 9.76364C18.4585 9.39258 18.5207 8.92727 18.3752 8.61818C18.0659 8.12727 17.5747 7.94546 16.6286 7.89091C15.6826 7.83636 15.1687 6.82915 15.3733 6.18182C15.3777 6.16785 15.382 6.15432 15.3861 6.14121L15.387 6.13837C15.4843 5.82968 15.5088 5.75181 15.719 5.49091C16.3193 4.74545 16.2958 4.23918 15.8827 3.72727C15.4279 3.16364 14.3181 2.85124 13.554 3.8C13.207 4.23078 12.5717 4.39616 12.0257 4.18182C11.5163 3.98182 11.207 3.5051 11.207 2.92727ZM17.8294 4.50909C18.171 4.50909 18.448 4.23232 18.448 3.89091C18.448 3.5495 18.171 3.27273 17.8294 3.27273C17.4878 3.27273 17.2108 3.5495 17.2108 3.89091C17.2108 4.23232 17.4878 4.50909 17.8294 4.50909ZM16.0101 2.43636C16.0101 2.77778 15.7331 3.05455 15.3915 3.05455C15.0499 3.05455 14.7729 2.77778 14.7729 2.43636C14.7729 2.09495 15.0499 1.81818 15.3915 1.81818C15.7331 1.81818 16.0101 2.09495 16.0101 2.43636ZM9.90998 4.90057L15.8232 13.9801C16.1855 14.5365 15.786 15.2727 15.1218 15.2727H14.5071C13.7492 15.2727 13.0456 14.8799 12.6481 14.2351L9.51515 9.15116C9.37298 8.92045 9.03735 8.92058 8.89536 9.1514L6.83657 12.4981C6.68753 12.7403 6.86196 13.0521 7.14655 13.0521H8.6552C9.37552 13.0521 10.0495 13.4072 10.4565 14.0012L10.9379 14.7036C11.1032 14.945 10.9303 15.2727 10.6376 15.2727H3.35419C2.69167 15.2727 2.29184 14.5399 2.65071 13.9833L8.50508 4.90377C8.83375 4.39404 9.57899 4.39234 9.90998 4.90057ZM17.8294 6.54545C17.8294 7.0877 17.3895 7.52727 16.8469 7.52727C16.3044 7.52727 15.8645 7.0877 15.8645 6.54545C15.8645 6.00321 16.3044 5.56364 16.8469 5.56364C17.3895 5.56364 17.8294 6.00321 17.8294 6.54545ZM12.6261 3.78182C13.1687 3.78182 13.6085 3.34224 13.6085 2.8C13.6085 2.25776 13.1687 1.81818 12.6261 1.81818C12.0835 1.81818 11.6437 2.25776 11.6437 2.8C11.6437 3.34224 12.0835 3.78182 12.6261 3.78182Z" fill="#262626"/>
<path d="M33.92 14.0332H30.0279L29.4924 15.8192H26L30.1561 5H33.8823L38.0385 15.8192H34.4631L33.92 14.0332ZM33.2035 11.6937L31.9815 7.80443L30.7671 11.6937H33.2035Z" fill="#262626"/>
<path d="M38.9511 18.8007V7.98155H41.825V9.14022C42.2222 8.65314 42.5868 8.32349 42.9187 8.15129C43.3662 7.92005 43.8616 7.80443 44.4046 7.80443C45.4757 7.80443 46.3029 8.20541 46.8863 9.00738C47.4746 9.80935 47.7688 10.8007 47.7688 11.9816C47.7688 13.2854 47.4495 14.2817 46.8108 14.9705C46.1722 15.6544 45.3651 15.9963 44.3896 15.9963C43.9169 15.9963 43.4844 15.9176 43.0922 15.7601C42.705 15.6027 42.358 15.369 42.0513 15.059V18.8007H38.9511ZM42.0286 11.9225C42.0286 12.5424 42.1619 13.0025 42.4284 13.3026C42.6949 13.6027 43.0318 13.7528 43.4392 13.7528C43.7962 13.7528 44.0954 13.6101 44.3368 13.3247C44.5781 13.0344 44.6988 12.5449 44.6988 11.8561C44.6988 11.2214 44.5731 10.7565 44.3217 10.4613C44.0702 10.1611 43.7635 10.0111 43.4014 10.0111C43.0092 10.0111 42.6824 10.1611 42.4209 10.4613C42.1594 10.7614 42.0286 11.2485 42.0286 11.9225Z" fill="#262626"/>
<path d="M49.2698 7.98155H52.1437V9.26568C52.4202 8.70972 52.7043 8.32841 52.996 8.12177C53.2927 7.91021 53.6573 7.80443 54.0897 7.80443C54.5423 7.80443 55.0376 7.94219 55.5757 8.21771L54.6253 10.3579C54.2632 10.2103 53.9766 10.1365 53.7654 10.1365C53.3631 10.1365 53.0513 10.2989 52.8301 10.6236C52.5133 11.0812 52.3549 11.9373 52.3549 13.1919V15.8192H49.2698V7.98155Z" fill="#262626"/>
<path d="M55.7265 11.9225C55.7265 10.7269 56.1389 9.74293 56.9636 8.97048C57.7883 8.19311 58.9021 7.80443 60.3051 7.80443C61.9092 7.80443 63.1211 8.25953 63.9407 9.16974C64.5995 9.90283 64.9289 10.8057 64.9289 11.8782C64.9289 13.0836 64.519 14.0726 63.6994 14.845C62.8847 15.6125 61.7558 15.9963 60.3126 15.9963C59.0253 15.9963 57.9844 15.6765 57.1899 15.0369C56.2143 14.2448 55.7265 13.2066 55.7265 11.9225ZM58.804 11.9151C58.804 12.6138 58.9473 13.1304 59.234 13.4649C59.5256 13.7995 59.8902 13.9668 60.3277 13.9668C60.7702 13.9668 61.1323 13.802 61.4139 13.4723C61.7005 13.1427 61.8438 12.6138 61.8438 11.8856C61.8438 11.2066 61.7005 10.7023 61.4139 10.3727C61.1272 10.0381 60.7727 9.87085 60.3503 9.87085C59.9028 9.87085 59.5332 10.0406 59.2415 10.3801C58.9499 10.7146 58.804 11.2263 58.804 11.9151Z" fill="#262626"/>
<path d="M66.4073 7.98155H69.266V9.2583C69.6934 8.73678 70.1259 8.36531 70.5634 8.14391C71.0009 7.91759 71.5339 7.80443 72.1625 7.80443C73.0123 7.80443 73.6761 8.05289 74.1538 8.54982C74.6366 9.04182 74.8779 9.80443 74.8779 10.8376V15.8192H71.7929V11.5092C71.7929 11.0172 71.6999 10.6704 71.5138 10.4686C71.3277 10.262 71.0662 10.1587 70.7293 10.1587C70.3572 10.1587 70.0555 10.2964 69.8242 10.572C69.5929 10.8475 69.4772 11.3419 69.4772 12.0554V15.8192H66.4073V7.98155Z" fill="#262626"/>
<path d="M76.9598 5H82.0361C83.0368 5 83.8439 5.13284 84.4574 5.39852C85.0759 5.66421 85.5863 6.04551 85.9886 6.54244C86.3909 7.03936 86.6825 7.61747 86.8636 8.27675C87.0446 8.93604 87.1351 9.63469 87.1351 10.3727C87.1351 11.5289 86.9994 12.4268 86.7278 13.0664C86.4613 13.7011 86.0892 14.2349 85.6115 14.6679C85.1337 15.0959 84.6208 15.3813 84.0727 15.524C83.3234 15.7208 82.6446 15.8192 82.0361 15.8192H76.9598V5ZM80.3767 7.45019V13.3616H81.214C81.928 13.3616 82.4359 13.2854 82.7376 13.1328C83.0393 12.9754 83.2757 12.7048 83.4467 12.321C83.6176 11.9324 83.7031 11.305 83.7031 10.4391C83.7031 9.29274 83.512 8.508 83.1298 8.08487C82.7477 7.66175 82.1141 7.45019 81.229 7.45019H80.3767Z" fill="#262626"/>
<path d="M97.6273 12.6458H91.4723C91.5276 13.1279 91.6609 13.4871 91.8721 13.7232C92.1687 14.0627 92.5559 14.2325 93.0337 14.2325C93.3354 14.2325 93.622 14.1587 93.8935 14.0111C94.0595 13.9176 94.238 13.7528 94.4291 13.5166L97.4538 13.7897C96.9912 14.5769 96.433 15.1427 95.7793 15.4871C95.1255 15.8266 94.1877 15.9963 92.9658 15.9963C91.9047 15.9963 91.07 15.8512 90.4615 15.5609C89.8531 15.2657 89.3477 14.8007 88.9454 14.1661C88.5481 13.5264 88.3495 12.7761 88.3495 11.9151C88.3495 10.69 88.7493 9.69865 89.5488 8.94096C90.3534 8.18327 91.4622 7.80443 92.8753 7.80443C94.0218 7.80443 94.9269 7.97417 95.5907 8.31365C96.2545 8.65314 96.7598 9.14514 97.1068 9.78967C97.4538 10.4342 97.6273 11.2731 97.6273 12.3063V12.6458ZM94.5045 11.2066C94.4442 10.6261 94.2833 10.2103 94.0218 9.95941C93.7653 9.70849 93.4259 9.58303 93.0035 9.58303C92.5157 9.58303 92.126 9.77245 91.8343 10.1513C91.6483 10.3875 91.5301 10.7392 91.4798 11.2066H94.5045Z" fill="#262626"/>
<path d="M98.4947 13.6494L101.542 13.369C101.668 13.7232 101.844 13.9766 102.07 14.1292C102.296 14.2817 102.598 14.3579 102.975 14.3579C103.388 14.3579 103.707 14.2718 103.933 14.0996C104.109 13.9717 104.197 13.8118 104.197 13.6199C104.197 13.4034 104.081 13.2362 103.85 13.1181C103.684 13.0344 103.244 12.9311 102.53 12.8081C101.464 12.6261 100.722 12.4588 100.305 12.3063C99.8927 12.1488 99.5432 11.8856 99.2565 11.5166C98.9749 11.1476 98.8341 10.7269 98.8341 10.2546C98.8341 9.73801 98.9875 9.29275 99.2943 8.91882C99.601 8.5449 100.023 8.26691 100.561 8.08487C101.1 7.89791 101.821 7.80443 102.726 7.80443C103.682 7.80443 104.386 7.87577 104.838 8.01845C105.296 8.16113 105.676 8.38253 105.977 8.68266C106.284 8.98278 106.538 9.38868 106.739 9.90037L103.828 10.1808C103.752 9.92989 103.626 9.74539 103.45 9.62731C103.209 9.46987 102.917 9.39115 102.575 9.39115C102.228 9.39115 101.974 9.45264 101.814 9.57565C101.658 9.69373 101.58 9.83887 101.58 10.0111C101.58 10.203 101.68 10.3481 101.881 10.4465C102.083 10.5449 102.52 10.6335 103.194 10.7122C104.215 10.8253 104.974 10.9828 105.472 11.1845C105.97 11.3862 106.349 11.674 106.611 12.048C106.877 12.4219 107.011 12.8327 107.011 13.2804C107.011 13.7331 106.87 14.1734 106.588 14.6015C106.312 15.0295 105.872 15.3715 105.268 15.6273C104.67 15.8782 103.853 16.0037 102.817 16.0037C101.353 16.0037 100.31 15.7995 99.6865 15.3911C99.068 14.9828 98.6707 14.4022 98.4947 13.6494Z" fill="#262626"/>
<path d="M108.595 5H111.665V7.04428H108.595V5ZM108.595 7.98155H111.665V15.8192H108.595V7.98155Z" fill="#262626"/>
<path d="M119.2 7.98155H122.074V15.3838L122.081 15.7306C122.081 16.2226 121.973 16.69 121.757 17.1328C121.546 17.5806 121.262 17.9422 120.905 18.2177C120.553 18.4932 120.103 18.6925 119.554 18.8155C119.011 18.9385 118.388 19 117.684 19C116.075 19 114.968 18.7638 114.365 18.2915C113.767 17.8192 113.467 17.187 113.467 16.3948C113.467 16.2964 113.472 16.1636 113.482 15.9963L116.462 16.3284C116.537 16.599 116.653 16.786 116.809 16.8893C117.035 17.0418 117.319 17.1181 117.661 17.1181C118.104 17.1181 118.433 17.0025 118.649 16.7712C118.871 16.54 118.981 16.1365 118.981 15.5609V14.3727C118.679 14.722 118.378 14.9754 118.076 15.1328C117.603 15.3788 117.093 15.5018 116.545 15.5018C115.474 15.5018 114.609 15.0443 113.95 14.1292C113.482 13.4797 113.249 12.6212 113.249 11.5535C113.249 10.3333 113.55 9.40344 114.154 8.76384C114.757 8.12423 115.547 7.80443 116.522 7.80443C117.146 7.80443 117.659 7.90775 118.061 8.11439C118.468 8.32103 118.848 8.66298 119.2 9.14022V7.98155ZM116.311 11.7823C116.311 12.3481 116.434 12.7688 116.681 13.0443C116.927 13.3149 117.251 13.4502 117.654 13.4502C118.036 13.4502 118.355 13.31 118.612 13.0295C118.873 12.7442 119.004 12.3161 119.004 11.7454C119.004 11.1747 118.868 10.7392 118.597 10.4391C118.325 10.1341 117.993 9.98155 117.601 9.98155C117.209 9.98155 116.894 10.1218 116.658 10.4022C116.427 10.6777 116.311 11.1378 116.311 11.7823Z" fill="#262626"/>
<path d="M123.929 7.98155H126.788V9.2583C127.216 8.73678 127.648 8.36531 128.085 8.14391C128.523 7.91759 129.056 7.80443 129.685 7.80443C130.534 7.80443 131.198 8.05289 131.676 8.54982C132.159 9.04182 132.4 9.80443 132.4 10.8376V15.8192H129.315V11.5092C129.315 11.0172 129.222 10.6704 129.036 10.4686C128.85 10.262 128.588 10.1587 128.251 10.1587C127.879 10.1587 127.578 10.2964 127.346 10.572C127.115 10.8475 126.999 11.3419 126.999 12.0554V15.8192H123.929V7.98155Z" fill="#262626"/>
</svg>
